<?xml version="1.0" ?><!DOCTYPE svg  PUBLIC '-//W3C//DTD SVG 1.1//EN'  'http://www.w3.org/Graphics/SVG/1.1/DTD/svg11.dtd'><svg width="2.33333px" height="2.33333px" viewBox="0 0 2.33333 2.33333" style="shape-rendering:geometricPrecision; text-rendering:geometricPrecision; image-rendering:optimizeQuality; fill-rule:evenodd; clip-rule:evenodd" xml:space="preserve" xmlns="http://www.w3.org/2000/svg" xmlns:xlink="http://www.w3.org/1999/xlink"><defs><style type="text/css">
   <![CDATA[
    .fil0 {fill:black;fill-rule:nonzero}
   ]]>
  </style></defs><g id="Layer_x0020_1"><path class="fil0" d="M0.683492 0.313335l0.966346 0c0.0812992,0 0.14774,0.0664409 0.14774,0.14774l0 1.41119c0,0.0812992 -0.0664409,0.14774 -0.14774,0.14774l-0.966346 0c-0.0812992,0 -0.14774,-0.0664409 -0.14774,-0.14774l0 -1.41119c0,-0.0812992 0.0664409,-0.14774 0.14774,-0.14774zm0.966346 0.04l-0.966346 0c-0.0592126,0 -0.10774,0.0485276 -0.10774,0.10774l0 1.41119c0,0.0592126 0.0485276,0.10774 0.10774,0.10774l0.966346 0c0.0592126,0 0.10774,-0.0485276 0.10774,-0.10774l0 -1.41119c0,-0.0592126 -0.0485276,-0.10774 -0.10774,-0.10774z"/><path class="fil0" d="M0.826484 0.538717l0.680362 0c0.0620866,0 0.112795,0.0507087 0.112795,0.112795l0 0.20587c0,0.0620827 -0.0507126,0.112791 -0.112795,0.112791l-0.680362 0c-0.0620827,0 -0.112795,-0.0507087 -0.112795,-0.112791l0 -0.20587c0,-0.0620866 0.0507087,-0.112795 0.112795,-0.112795zm0.680362 0.04l-0.680362 0c-0.04,0 -0.0727953,0.0327953 -0.0727953,0.0727953l0 0.20587c0,0.0399961 0.0327992,0.0727913 0.0727953,0.0727913l0.680362 0c0.0399961,0 0.0727953,-0.0327953 0.0727953,-0.0727913l0 -0.20587c0,-0.04 -0.0327953,-0.0727953 -0.0727953,-0.0727953z"/><path class="fil0" d="M0.793 1.30384c-0.0263307,0 -0.0263307,0.04 0,0.04l0.747331 0c0.0263307,0 0.0263307,-0.04 0,-0.04l-0.747331 0z"/><path class="fil0" d="M0.943378 1.55294c-0.0263307,0 -0.0263307,0.04 0,0.04l0.446575 0c0.0263307,0 0.0263307,-0.04 0,-0.04l-0.446575 0z"/></g></svg>